<svg width="32" height="32" viewBox="0 0 32 32" fill="none" xmlns="http://www.w3.org/2000/svg">
<rect x="-0.000244141" width="32" height="32" rx="16" stroke="white" stroke-width="1.2"/>
<path d="M23 7C23.5304 7 24.0391 7.21071 24.4142 7.58579C24.7893 7.96086 25 8.46957 25 9V23C25 23.5304 24.7893 24.0391 24.4142 24.4142C24.0391 24.7893 23.5304 25 23 25H9C8.46957 25 7.96086 24.7893 7.58579 24.4142C7.21071 24.0391 7 23.5304 7 23V9C7 8.46957 7.21071 7.96086 7.58579 7.58579C7.96086 7.21071 8.46957 7 9 7H23ZM22.5 22.5V17.2C22.5 16.3354 22.1565 15.5062 21.5452 14.8948C20.9338 14.2835 20.1046 13.94 19.24 13.94C18.39 13.94 17.4 14.46 16.92 15.24V14.13H14.13V22.5H16.92V17.57C16.92 16.8 17.54 16.17 18.31 16.17C18.6813 16.17 19.0374 16.3175 19.2999 16.5801C19.5625 16.8426 19.71 17.1987 19.71 17.57V22.5H22.5ZM10.88 12.56C11.3256 12.56 11.7529 12.383 12.0679 12.0679C12.383 11.7529 12.56 11.3256 12.56 10.88C12.56 9.95 11.81 9.19 10.88 9.19C10.4318 9.19 10.0019 9.36805 9.68499 9.68499C9.36805 10.0019 9.19 10.4318 9.19 10.88C9.19 11.81 9.95 12.56 10.88 12.56ZM12.27 22.5V14.13H9.5V22.5H12.27Z" fill="white"/>
</svg>
